<?xml version="1.0" encoding="UTF-8" standalone="no"?>
<!DOCTYPE svg PUBLIC "-//W3C//DTD SVG 1.1//EN" "http://www.w3.org/Graphics/SVG/1.1/DTD/svg11.dtd">
<svg version="1.1" xmlns="http://www.w3.org/2000/svg" xmlns:xlink="http://www.w3.org/1999/xlink" preserveAspectRatio="xMidYMid meet" viewBox="0 0 640 640" width="640" height="640"><defs><path d="M141.19 302.39L315.61 476.81L488.14 304.28L313.72 129.86L141.19 302.39Z" id="ahMdRUHKd"></path><path d="M428 312C428 396.63 419.04 465.33 408 465.33C396.96 465.33 388 396.63 388 312C388 227.37 396.96 158.67 408 158.67C419.04 158.67 428 227.37 428 312Z" id="dWWWXgQBk"></path><path d="M242.67 312C242.67 396.63 233.7 465.33 222.67 465.33C211.63 465.33 202.67 396.63 202.67 312C202.67 227.37 211.63 158.67 222.67 158.67C233.7 158.67 242.67 227.37 242.67 312Z" id="b1UL62ub6Q"></path><path d="M364.67 106C364.67 132.86 342.26 154.67 314.67 154.67C287.07 154.67 264.67 132.86 264.67 106C264.67 79.14 287.07 57.33 314.67 57.33C342.26 57.33 364.67 79.14 364.67 106Z" id="d5kqPEaGU"></path><path d="M310 319.21C310 328.67 299.85 336.33 287.33 336.33C274.81 336.33 264.67 328.67 264.67 319.21C264.67 309.75 274.81 302.09 287.33 287.67C299.85 302.09 310 309.75 310 319.21Z" id="b1t54bhpqF"></path><path d="M364.67 318.99C364.76 328.45 354.68 336.21 342.17 336.33C329.65 336.45 319.43 328.88 319.33 319.43C319.24 309.97 329.32 302.21 341.7 287.67C354.35 301.97 364.57 309.53 364.67 318.99Z" id="a14sYMcwbu"></path><path d="M337.33 229.54C337.33 239 327.19 246.67 314.67 246.67C302.15 246.67 292 239 292 229.54C292 220.09 302.15 212.42 314.67 198C327.19 212.42 337.33 220.09 337.33 229.54Z" id="bg2ZWRbn"></path><path d="M317.96 273.35L325.33 274.48L320 279.95L321.26 287.67L314.67 284.02L308.07 287.67L309.33 279.95L304 274.48L311.37 273.35L314.67 266.33L317.96 273.35Z" id="i9GXxSyKv"></path><path d="M339.67 488.67C339.67 501.54 328.46 512 314.67 512C300.87 512 289.67 501.54 289.67 488.67C289.67 475.79 300.87 465.33 314.67 465.33C328.46 465.33 339.67 475.79 339.67 488.67Z" id="d53miT8eWI"></path></defs><g><g><g><use xlink:href="#ahMdRUHKd" opacity="1" fill="#1b6a83" fill-opacity="1"></use></g><g><use xlink:href="#dWWWXgQBk" opacity="1" fill="#501b83" fill-opacity="1"></use></g><g><use xlink:href="#b1UL62ub6Q" opacity="1" fill="#501b83" fill-opacity="1"></use></g><g><use xlink:href="#d5kqPEaGU" opacity="1" fill="#837d1b" fill-opacity="1"></use></g><g><use xlink:href="#b1t54bhpqF" opacity="1" fill="#1b2183" fill-opacity="1"></use></g><g><use xlink:href="#a14sYMcwbu" opacity="1" fill="#1b2183" fill-opacity="1"></use></g><g><use xlink:href="#bg2ZWRbn" opacity="1" fill="#1b2183" fill-opacity="1"></use></g><g><use xlink:href="#i9GXxSyKv" opacity="1" fill="#d9e311" fill-opacity="1"></use></g><g><use xlink:href="#d53miT8eWI" opacity="1" fill="#837d1b" fill-opacity="1"></use></g></g></g></svg>